<svg width="36" height="36" viewBox="0 0 36 36" fill="none" xmlns="http://www.w3.org/2000/svg">
<path d="M1.97164 13.8572L11.3683 23.6357V13.8572L7.36118 0.515C7.15581 -0.171667 6.18309 -0.171667 5.97873 0.515L1.97164 13.8572Z" fill="#A5A5A5"/>
<path d="M34.0284 13.8572L24.6317 23.6357V13.8572L28.6388 0.515C28.8442 -0.171667 29.8169 -0.171667 30.0213 0.515L34.0284 13.8572Z" fill="#A5A5A5"/>
<path d="M18 36L2.97339 13.8572H33.0266L18 36Z" fill="white"/>
<path d="M18 36L11.3683 13.8572H1.97164L5.97873 25.8086L18 36Z" fill="#EBEBEB"/>
<path d="M18 36L24.6317 13.8572H34.0284L30.0213 25.8086L18 36Z" fill="#EBEBEB"/>
<path d="M1.97163 13.8572L0.0682592 20.55C-0.11206 21.1639 0.0682592 21.8538 0.569146 22.2449L18.02 36L1.97163 13.8572Z" fill="#DCDCDC"/>
<path d="M34.0284 13.8572L35.9317 20.55C36.1121 21.1639 35.9317 21.8538 35.4309 22.2449L18 36L34.0284 13.8572Z" fill="#DCDCDC"/>
</svg>
